<?xml version="1.0" standalone="no"?>
<!DOCTYPE svg PUBLIC "-//W3C//DTD SVG 20010904//EN"
 "http://www.w3.org/TR/2001/REC-SVG-20010904/DTD/svg10.dtd">
<svg version="1.0" xmlns="http://www.w3.org/2000/svg"
 width="1080.000000pt" height="1080.000000pt" viewBox="0 0 1080.000000 1080.000000"
 preserveAspectRatio="xMidYMid meet">

<g transform="translate(0.000000,1080.000000) scale(0.100000,-0.100000)"
fill="#000000" stroke="none">
<path d="M5940 10399 c-488 -33 -719 -57 -1065 -110 -645 -99 -1175 -257
-1484 -442 -211 -127 -334 -250 -420 -419 l-44 -87 -5 -922 c-5 -900 -4 -921
14 -916 11 3 78 17 149 31 133 25 317 40 663 52 106 4 189 10 185 14 -4 4 -37
17 -73 29 -103 36 -281 126 -323 163 -32 28 -39 42 -47 93 -11 65 -12 593 -1
637 l6 26 135 -54 c391 -158 806 -262 1345 -338 622 -88 1018 -111 1770 -103
757 8 1209 47 1830 158 440 79 783 176 1073 304 46 20 87 34 90 30 11 -11 14
-559 3 -637 -9 -67 -13 -76 -50 -109 -135 -121 -575 -272 -1116 -383 -335 -68
-692 -114 -1170 -148 -238 -17 -1303 -17 -1545 0 -194 14 -583 49 -645 58 -56
9 -40 -2 72 -50 216 -92 567 -306 812 -494 l123 -95 422 7 c739 12 996 26
1391 77 647 83 1088 185 1519 350 98 38 182 67 185 63 3 -3 7 -158 9 -343 l3
-338 -66 -60 c-81 -75 -217 -138 -467 -217 -562 -177 -1136 -269 -2003 -321
-143 -9 -268 -17 -278 -18 -14 -2 -6 -21 46 -107 35 -58 101 -178 147 -267
l85 -163 55 0 c30 0 141 7 247 15 885 69 1601 214 2090 422 57 23 109 43 117
43 22 0 26 -49 26 -366 l0 -303 -49 -49 c-200 -207 -1149 -446 -2066 -522 -71
-6 -138 -13 -147 -16 -25 -7 -23 -40 12 -304 17 -123 30 -228 30 -233 0 -13
162 -3 440 28 679 77 1267 212 1632 375 61 28 117 50 124 50 20 0 24 -64 24
-382 l0 -307 -52 -51 c-163 -160 -764 -339 -1533 -455 -145 -22 -305 -40 -622
-71 l-62 -6 -7 -36 c-6 -41 -112 -475 -120 -497 -10 -24 38 -28 203 -16 932
67 1787 260 2227 502 238 131 420 311 486 481 l30 77 0 2795 0 2796 -25 65
c-13 36 -41 91 -62 122 -52 79 -204 229 -293 290 -468 319 -1539 557 -2710
603 -307 12 -1087 11 -1270 -1z m1239 -559 c439 -13 729 -41 1174 -116 690
-115 1258 -302 1373 -452 l33 -44 -31 -39 c-60 -75 -205 -148 -463 -235 -597
-199 -1325 -311 -2235 -345 -849 -31 -1766 35 -2445 177 -482 101 -943 265
-1060 377 -25 24 -45 50 -45 58 0 23 43 76 91 114 68 52 169 98 354 158 548
179 1011 265 1785 333 352 31 751 35 1469 14z"/>
<path d="M3906 8143 c-12 -41 -27 -164 -29 -248 l-2 -90 49 -12 c60 -15 284
-39 291 -31 7 6 29 162 39 269 5 52 3 69 -9 79 -11 9 -272 49 -327 50 -4 0 -9
-8 -12 -17z"/>
<path d="M9075 8139 c-71 -11 -134 -24 -140 -30 -11 -11 19 -299 35 -329 11
-21 35 -21 215 1 140 17 135 15 135 62 0 23 -7 104 -17 180 l-17 137 -41 -1
c-22 0 -98 -10 -170 -20z"/>
<path d="M5076 7908 c-6 -28 -25 -214 -28 -283 l-3 -50 70 -6 c122 -11 283
-10 291 2 7 12 37 330 31 335 -7 8 -190 24 -269 24 -83 0 -88 -1 -92 -22z"/>
<path d="M7828 7923 l-78 -4 0 -28 c0 -36 30 -334 34 -338 4 -4 304 17 335 23
23 5 23 5 17 112 -4 59 -9 137 -12 175 l-6 67 -107 -2 c-58 -1 -141 -4 -183
-5z"/>
<path d="M6420 7670 l0 -180 180 0 180 0 0 180 0 180 -180 0 -180 0 0 -180z"/>
<path d="M3435 7174 c-569 -58 -1116 -263 -1609 -604 -222 -153 -516 -437
-728 -700 -158 -199 -368 -582 -473 -863 -234 -633 -274 -1304 -115 -1962 172
-713 555 -1326 1125 -1799 513 -425 1094 -667 1804 -751 272 -32 686 -14 959
41 724 146 1371 513 1860 1057 239 265 390 491 536 799 206 436 290 771 316
1264 31 593 -75 1122 -330 1649 -166 341 -363 617 -645 901 -444 448 -1046
775 -1662 905 -255 54 -332 61 -673 64 -179 1 -343 1 -365 -1z m570 -555 c666
-57 1248 -329 1741 -815 368 -363 636 -845 745 -1339 47 -217 60 -327 66 -570
4 -188 2 -271 -11 -384 -29 -246 -103 -529 -197 -756 -324 -775 -967 -1352
-1783 -1599 -289 -88 -542 -121 -876 -113 -265 6 -360 19 -600 78 -516 127
-974 391 -1329 765 -212 224 -346 410 -474 662 -412 809 -422 1714 -28 2517
259 526 651 935 1179 1230 315 176 718 296 1087 324 160 12 343 12 480 0z"/>
<path d="M3450 6209 c-167 -27 -322 -63 -436 -103 -113 -38 -241 -89 -252
-100 -7 -7 199 -384 249 -457 l19 -26 139 47 c77 25 196 57 265 70 l126 24 0
278 0 278 -27 -1 c-16 -1 -53 -5 -83 -10z"/>
<path d="M3960 5951 c0 -203 3 -271 13 -279 6 -5 32 -13 57 -17 74 -11 301
-72 391 -105 46 -16 86 -27 89 -23 10 12 270 462 270 468 0 10 -98 54 -196 88
-179 62 -501 137 -591 137 l-33 0 0 -269z"/>
<path d="M2320 5743 c-147 -107 -500 -480 -500 -528 0 -17 27 -37 128 -97 70
-41 172 -99 228 -128 l100 -53 192 190 c106 105 192 196 192 203 0 26 -255
460 -270 460 -4 0 -35 -21 -70 -47z"/>
<path d="M5111 5752 c-29 -44 -213 -357 -234 -398 l-15 -29 188 -182 c104
-100 197 -186 208 -192 16 -9 46 5 178 81 215 123 284 167 284 182 0 16 -140
183 -249 299 -93 98 -308 277 -331 277 -3 0 -16 -17 -29 -38z"/>
<path d="M3548 5068 l-3 -133 -91 -45 c-103 -51 -171 -99 -230 -162 -102 -108
-158 -210 -175 -320 -15 -96 -6 -250 20 -322 26 -75 97 -180 164 -244 113
-106 204 -150 437 -207 213 -53 268 -73 317 -118 60 -55 76 -89 71 -147 -8
-76 -36 -120 -105 -167 -80 -53 -156 -72 -221 -54 -74 19 -167 68 -234 122
l-62 49 -44 -42 c-83 -81 -253 -270 -250 -279 8 -24 214 -165 306 -209 l102
-49 0 -141 0 -140 213 2 212 3 3 132 3 132 107 55 c177 91 273 182 347 331
153 306 17 667 -315 835 -38 19 -139 51 -258 81 -107 27 -213 57 -236 68 -57
25 -113 75 -138 124 -73 143 109 317 307 292 63 -7 161 -55 241 -117 l59 -46
154 151 154 150 -54 48 c-73 66 -177 136 -282 190 l-86 44 -3 130 -3 130 -212
3 -212 2 -3 -132z"/>
<path d="M1557 4758 c-41 -99 -80 -214 -107 -318 -20 -79 -70 -351 -70 -382 0
-17 16 -18 277 -16 l277 3 22 105 c12 58 40 171 63 252 22 81 41 155 41 165 0
12 -39 40 -123 90 -176 103 -322 183 -334 183 -6 0 -26 -37 -46 -82z"/>
<path d="M5693 4712 c-122 -70 -224 -130 -228 -134 -4 -4 14 -74 40 -156 26
-83 57 -201 69 -263 l22 -114 279 -3 278 -2 -7 72 c-20 216 -174 729 -218 728
-7 0 -113 -58 -235 -128z"/>
<path d="M1446 3633 l-68 -4 6 -62 c25 -216 162 -692 209 -721 11 -7 27 -6 52
3 82 29 425 242 425 263 0 6 -20 73 -45 149 -24 75 -55 190 -68 255 l-23 119
-210 1 c-115 0 -240 -1 -278 -3z"/>
<path d="M5675 3633 c-33 -2 -64 -8 -68 -12 -5 -5 -19 -57 -33 -117 -13 -60
-43 -173 -65 -251 -23 -79 -39 -149 -36 -156 3 -7 76 -56 163 -109 229 -137
294 -172 304 -162 22 23 111 281 155 454 23 88 55 276 55 323 l0 37 -207 -2
c-115 -1 -235 -3 -268 -5z"/>
<path d="M5207 2692 c-54 -68 -170 -187 -260 -268 l-77 -69 31 -65 c42 -89
229 -420 238 -420 11 0 172 133 243 201 115 110 292 305 316 348 l23 41 -83
54 c-106 68 -376 226 -386 226 -4 -1 -24 -22 -45 -48z"/>
<path d="M2040 2604 c-118 -69 -219 -129 -224 -134 -33 -33 352 -443 532 -567
28 -20 53 -34 55 -32 14 17 257 454 257 461 0 17 -372 398 -389 398 -9 0 -113
-57 -231 -126z"/>
<path d="M3017 2112 c-42 -47 -257 -421 -257 -449 0 -12 190 -84 330 -127 101
-30 308 -73 403 -82 l67 -7 0 280 0 280 -57 7 c-72 8 -262 57 -375 95 l-86 29
-25 -26z"/>
<path d="M4349 2095 c-76 -24 -189 -55 -254 -68 -64 -14 -118 -27 -120 -29 -2
-1 -5 -124 -6 -272 -2 -203 0 -271 9 -274 21 -7 182 18 313 48 218 50 479 143
479 170 0 17 -43 98 -137 258 -86 147 -130 213 -142 211 -3 0 -67 -20 -142
-44z"/>
<path d="M9075 6779 c-71 -11 -134 -24 -140 -30 -11 -11 19 -299 35 -329 11
-21 35 -21 215 1 140 17 135 15 135 62 0 23 -7 104 -17 180 l-17 137 -41 -1
c-22 0 -98 -10 -170 -20z"/>
<path d="M7808 6513 c-56 -4 -58 -5 -58 -32 0 -37 30 -334 34 -338 4 -4 266
15 320 23 l38 6 -6 107 c-4 58 -9 136 -12 174 l-6 67 -127 -2 c-69 -1 -152 -3
-183 -5z"/>
<path d="M6501 6423 c8 -10 59 -71 114 -137 55 -65 111 -132 124 -148 18 -23
26 -27 32 -16 5 7 9 82 9 166 l0 152 -146 0 c-138 0 -146 -1 -133 -17z"/>
<path d="M9118 5465 c-59 -7 -126 -16 -149 -20 l-42 -7 8 -97 c4 -53 12 -132
19 -176 l12 -80 74 2 c69 3 280 29 287 37 4 3 -36 325 -42 344 -5 14 -26 14
-167 -3z"/>
<path d="M7890 5193 c-74 -8 -136 -16 -138 -18 -5 -5 28 -349 34 -354 6 -6
307 17 329 25 16 6 17 21 13 168 -3 89 -8 169 -13 179 -9 21 -33 21 -225 0z"/>
<path d="M9130 4094 c-14 -2 -65 -9 -114 -16 l-89 -11 7 -90 c9 -111 32 -247
44 -259 9 -9 340 18 351 28 9 8 -39 327 -50 340 -11 13 -85 17 -149 8z"/>
<path d="M7945 3829 c-88 -5 -166 -11 -172 -14 -9 -3 -13 -26 -13 -67 0 -69
18 -287 24 -297 5 -8 336 22 351 31 7 4 7 42 2 110 -4 56 -10 136 -13 176 -3
39 -9 71 -12 71 -4 -1 -79 -6 -167 -10z"/>
</g>
</svg>
