<?xml version="1.0" standalone="no"?>
<!DOCTYPE svg PUBLIC "-//W3C//DTD SVG 20010904//EN"
 "http://www.w3.org/TR/2001/REC-SVG-20010904/DTD/svg10.dtd">
<svg version="1.0" xmlns="http://www.w3.org/2000/svg"
 width="1080.000000pt" height="1080.000000pt" viewBox="0 0 1080.000000 1080.000000"
 preserveAspectRatio="xMidYMid meet">

<g transform="translate(0.000000,1080.000000) scale(0.100000,-0.100000)"
fill="#000000" stroke="none">
<path d="M5915 10374 c-914 -62 -1518 -160 -2024 -326 -344 -113 -557 -227
-729 -392 -162 -156 -200 -258 -209 -564 l-6 -193 44 -45 c296 -305 969 -527
2029 -668 177 -24 542 -60 885 -88 204 -17 1018 -16 1285 0 1009 64 1902 221
2420 427 245 98 377 174 498 289 l72 69 0 131 c0 72 -5 187 -10 255 -8 113
-12 131 -44 195 -82 166 -225 292 -480 423 -446 228 -1242 401 -2176 473 -404
31 -1207 38 -1555 14z"/>
<path d="M2955 8278 c-8 -45 -2 -765 7 -773 4 -4 62 2 130 14 68 11 159 25
203 31 96 12 496 30 688 30 l137 0 0 45 0 45 53 -1 c28 0 111 -8 182 -17 l130
-17 3 -55 c2 -30 6 -58 10 -62 4 -4 79 -25 167 -48 88 -22 254 -72 368 -111
114 -38 212 -67 217 -64 5 3 12 36 16 74 3 38 9 73 13 79 5 8 59 8 190 0 l183
-12 -6 -70 c-3 -39 -9 -118 -12 -176 l-6 -105 78 -47 c82 -49 226 -151 390
-277 l96 -74 421 12 c421 12 531 17 917 46 404 31 913 98 1230 161 645 129
1092 301 1339 515 l81 70 0 410 c0 225 -2 409 -4 409 -3 0 -32 -16 -66 -36
-212 -124 -502 -242 -820 -333 -768 -221 -1656 -326 -2745 -325 -923 1 -1661
77 -2405 249 -435 100 -844 252 -1118 414 -29 17 -55 31 -57 31 -2 0 -7 -15
-10 -32z m6463 -630 c10 -30 22 -120 37 -259 5 -42 2 -60 -8 -71 -25 -25 -346
-64 -353 -43 -12 33 -51 354 -43 356 60 10 311 47 331 48 22 1 28 -5 36 -31z
m-1131 -380 l6 -176 -29 -5 c-37 -8 -335 -30 -339 -25 -8 9 -23 364 -16 371
10 10 352 26 364 17 4 -4 10 -85 14 -182z m-1327 -78 l0 -190 -185 0 -185 0 0
190 0 190 185 0 185 0 0 -190z"/>
<path d="M3225 7120 c-910 -138 -1698 -634 -2211 -1391 -246 -362 -428 -791
-514 -1209 -50 -243 -63 -387 -64 -670 0 -344 25 -553 99 -837 93 -355 279
-745 507 -1063 231 -321 567 -641 893 -852 549 -354 1106 -518 1755 -518 570
0 1120 140 1611 410 335 185 517 326 813 631 166 171 229 248 343 419 105 158
136 213 222 392 168 345 272 721 312 1121 18 180 7 605 -20 782 -58 375 -158
691 -321 1010 -252 495 -592 893 -1026 1203 -418 298 -1003 527 -1473 577
-207 22 -768 19 -926 -5z m294 -707 c-1 -104 -4 -231 -8 -283 l-6 -95 -95 -12
c-119 -14 -296 -59 -468 -118 -73 -25 -137 -43 -142 -40 -16 10 -159 241 -216
350 -31 57 -54 112 -52 121 7 37 370 165 606 214 149 31 251 46 340 49 l42 1
-1 -187z m601 167 c238 -36 451 -96 682 -192 54 -22 102 -45 107 -52 15 -17
-243 -460 -275 -473 -8 -3 -66 13 -127 36 -156 57 -301 95 -442 116 -66 9
-125 19 -131 20 -18 5 -24 85 -24 331 l0 234 43 0 c23 0 98 -9 167 -20z
m-1790 -690 l132 -225 -79 -69 c-133 -118 -347 -338 -397 -408 -26 -38 -51
-68 -55 -68 -22 0 -471 276 -471 289 0 16 61 102 135 191 144 173 410 427 539
514 32 21 42 24 52 14 6 -7 71 -114 144 -238z m3054 156 c197 -149 392 -348
545 -555 57 -77 60 -85 44 -96 -75 -51 -447 -265 -461 -265 -6 0 -54 52 -107
115 -53 63 -142 157 -198 208 -55 50 -128 118 -161 149 l-61 57 28 58 c78 161
233 413 255 413 3 0 56 -38 116 -84z m-1475 -1051 c445 -491 698 -842 793
-1097 36 -99 49 -241 28 -329 -32 -139 -140 -291 -259 -363 -103 -63 -258 -83
-389 -50 -35 9 -65 14 -68 12 -2 -3 21 -106 51 -229 30 -123 55 -232 55 -241
0 -11 -11 -21 -27 -25 -48 -14 -761 -9 -774 4 -10 10 1 66 45 249 31 130 55
238 52 241 -2 3 -36 -3 -75 -12 -49 -12 -97 -16 -163 -13 -83 3 -103 8 -172
41 -105 50 -192 134 -244 236 -54 106 -67 159 -66 276 0 81 6 115 28 180 73
215 266 506 564 853 149 172 286 326 371 414 l55 58 29 -28 c16 -15 91 -95
166 -177z m2327 -36 c54 -121 97 -250 139 -414 32 -126 85 -412 85 -461 l0
-24 -227 1 c-126 1 -253 4 -283 7 -52 7 -55 8 -62 42 -4 19 -18 94 -32 165
-30 157 -65 281 -112 395 -41 102 -42 120 -6 141 15 9 117 68 227 133 110 64
206 115 214 114 8 -2 34 -46 57 -99z m-4898 59 c111 -61 392 -230 392 -236 0
-3 -25 -82 -55 -176 -64 -201 -110 -386 -120 -479 l-7 -67 -242 0 c-244 0
-309 7 -320 36 -10 27 23 227 66 398 56 224 150 493 190 544 16 18 33 15 96
-20z m218 -1448 c16 -130 44 -243 110 -443 l56 -171 -25 -22 c-67 -58 -413
-253 -448 -254 -35 0 -181 409 -223 625 -27 139 -46 278 -46 332 l0 33 282 -2
282 -3 12 -95z m4904 78 c-1 -92 -57 -388 -106 -561 -39 -135 -125 -359 -153
-396 l-18 -23 -40 20 c-57 30 -426 242 -436 251 -4 4 8 45 28 91 60 140 130
412 150 583 l7 57 284 0 284 0 0 -22z m-4410 -1183 c111 -123 238 -245 364
-351 l50 -41 -140 -241 c-76 -133 -141 -242 -144 -242 -3 0 -41 27 -85 60
-120 90 -303 258 -412 378 -119 132 -245 294 -235 303 22 21 458 268 474 269
3 0 61 -61 128 -135z m3667 24 c186 -106 273 -160 273 -169 0 -3 -37 -55 -82
-115 -134 -179 -397 -429 -611 -582 l-45 -33 -115 198 c-118 204 -157 275
-157 290 0 5 39 40 87 78 121 95 207 178 336 322 62 70 115 121 122 118 7 -2
93 -51 192 -107z m-2788 -659 c157 -59 288 -94 466 -125 l130 -22 3 -278 2
-278 -97 7 c-255 18 -593 107 -841 223 l-82 38 141 243 c77 133 142 242 143
242 1 0 62 -23 135 -50z m1752 -26 c60 -90 229 -379 229 -392 0 -5 -35 -26
-77 -47 -203 -96 -579 -198 -847 -231 -44 -5 -60 -3 -67 7 -5 8 -9 134 -9 280
l0 265 133 27 c166 33 368 88 483 132 49 18 94 32 99 31 6 -1 31 -33 56 -72z"/>
<path d="M10135 6874 c-719 -383 -1838 -593 -3343 -627 l-102 -2 106 -142 107
-143 78 0 79 0 0 -100 c0 -119 7 -142 105 -347 l74 -153 53 0 c29 0 156 9 282
20 708 62 1429 190 1906 339 319 99 577 230 738 376 l52 47 -1 371 c-1 205 -4
384 -8 399 l-6 26 -120 -64z m-621 -596 c17 -95 36 -239 36 -281 0 -58 -1 -58
-163 -81 -151 -20 -193 -21 -201 0 -9 24 -48 324 -43 337 4 12 246 54 323 56
39 1 42 -1 48 -31z m-1141 -310 c19 -219 20 -288 6 -293 -8 -3 -91 -11 -185
-18 l-172 -13 -6 42 c-3 22 -8 107 -12 187 l-7 146 24 5 c23 6 94 9 270 14
l76 2 6 -72z"/>
<path d="M10086 5494 c-281 -139 -490 -216 -826 -304 -437 -115 -871 -186
-1528 -249 -161 -15 -295 -31 -298 -34 -4 -3 12 -88 34 -189 42 -190 60 -295
87 -508 9 -69 18 -140 22 -159 l6 -34 86 7 c778 61 1696 258 2163 463 143 62
330 178 404 250 39 38 41 43 47 118 8 92 7 405 -2 596 l-6 136 -189 -93z
m-560 -525 c9 -15 44 -263 44 -315 l0 -42 -72 -10 c-129 -19 -288 -36 -293
-31 -5 6 -33 232 -37 309 l-3 54 40 8 c50 11 239 35 282 37 17 0 35 -4 39 -10z
m-1142 -286 c3 -16 8 -98 11 -184 l7 -156 -49 -6 c-26 -4 -107 -9 -180 -13
l-132 -7 -5 34 c-7 38 -27 332 -23 335 5 5 216 21 289 23 76 1 76 1 82 -26z"/>
<path d="M10095 4139 c-557 -273 -1141 -420 -2115 -534 -168 -19 -322 -38
-342 -42 -64 -10 -69 -18 -78 -135 -12 -143 -62 -423 -111 -618 -22 -89 -38
-165 -34 -168 8 -8 365 22 625 53 869 103 1507 283 1890 533 120 78 256 217
304 311 36 68 40 84 47 185 9 132 10 452 1 482 -7 19 -18 15 -187 -67z m-577
-548 c9 -5 22 -70 38 -181 13 -95 23 -174 21 -176 -6 -7 -297 -35 -332 -32
-36 3 -40 6 -46 38 -10 49 -39 314 -34 318 4 5 271 40 310 41 17 0 36 -3 43
-8z m-1133 -263 c7 -20 27 -350 21 -355 -6 -7 -262 -33 -322 -33 l-52 0 -7
163 c-4 90 -6 171 -4 182 5 24 36 32 169 43 157 14 190 14 195 0z"/>
</g>
</svg>
