<?xml version="1.0" standalone="no"?>
<!DOCTYPE svg PUBLIC "-//W3C//DTD SVG 20010904//EN"
 "http://www.w3.org/TR/2001/REC-SVG-20010904/DTD/svg10.dtd">
<svg version="1.0" xmlns="http://www.w3.org/2000/svg"
 width="1080.000000pt" height="1080.000000pt" viewBox="0 0 1080.000000 1080.000000"
 preserveAspectRatio="xMidYMid meet">

<g transform="translate(0.000000,1080.000000) scale(0.100000,-0.100000)"
fill="#000000" stroke="none">
<path d="M5975 10789 c-27 -4 -93 -13 -145 -19 -52 -7 -113 -15 -135 -20 -22
-5 -77 -16 -122 -25 -135 -27 -378 -99 -490 -146 -13 -5 -33 -13 -45 -18 -198
-77 -476 -229 -663 -364 -636 -456 -1072 -1080 -1285 -1837 -131 -463 -149
-1034 -49 -1535 225 -1126 1029 -2060 2114 -2457 90 -32 321 -99 405 -117 266
-55 427 -71 703 -71 362 1 655 44 967 142 391 123 746 314 1085 582 132 105
409 384 514 520 265 341 471 740 584 1131 160 554 175 1148 45 1695 -73 308
-187 600 -340 870 -337 594 -846 1071 -1451 1360 -314 149 -661 253 -972 289
-55 7 -128 16 -161 21 -72 12 -487 11 -559 -1z m1078 -1332 c95 -33 175 -119
203 -216 22 -75 14 -148 -29 -251 -105 -255 -236 -569 -257 -615 -10 -22 -34
-78 -53 -125 -65 -160 -139 -335 -163 -388 -13 -29 -24 -54 -24 -57 0 -4 -166
-400 -180 -430 -9 -18 -91 -216 -177 -425 -19 -47 -43 -103 -53 -125 -10 -22
-42 -96 -70 -165 -123 -294 -151 -362 -203 -485 -30 -71 -85 -201 -121 -289
-84 -200 -86 -204 -135 -253 -66 -66 -121 -88 -221 -88 -70 0 -94 5 -135 25
-111 55 -179 163 -179 285 1 75 -6 58 189 520 37 88 83 198 102 245 19 47 41
99 48 115 23 49 185 436 185 440 0 3 11 28 24 57 22 50 64 148 176 418 101
244 153 367 170 405 10 22 34 78 53 125 65 160 139 335 163 388 13 29 24 54
24 57 0 4 159 384 184 440 8 17 35 82 61 145 40 96 57 124 100 166 85 84 215
117 318 81z m-1590 -689 c204 -94 302 -348 209 -540 -99 -205 -341 -295 -536
-199 -288 142 -319 532 -55 702 83 53 142 69 239 66 66 -2 98 -9 143 -29z
m1882 -1858 c99 -47 165 -122 213 -240 9 -21 15 -74 16 -135 1 -91 -2 -105
-27 -154 -41 -79 -80 -125 -148 -170 -161 -108 -366 -91 -498 41 -170 169
-174 421 -10 578 55 52 136 98 198 111 73 16 187 2 256 -31z"/>
<path d="M3360 4133 c-189 -10 -435 -42 -570 -74 -25 -6 -65 -15 -90 -21 -25
-5 -83 -21 -129 -35 -384 -113 -655 -420 -727 -821 -11 -63 -13 -363 -14
-1629 l0 -1553 2796 0 c1673 0 2811 4 2833 9 20 5 68 15 106 22 169 29 396
131 550 247 56 42 486 465 1277 1257 1327 1328 1242 1234 1241 1375 0 111 -25
160 -134 265 -299 284 -740 436 -1155 397 -280 -27 -502 -106 -739 -265 -75
-50 -217 -187 -840 -807 -412 -411 -772 -763 -800 -782 -103 -73 -202 -118
-326 -147 -32 -7 -372 -11 -1092 -11 l-1045 -1 -55 25 c-69 30 -133 95 -164
166 -21 47 -24 67 -21 135 4 98 24 142 93 210 99 97 1 89 1220 95 984 5 1075
7 1128 23 257 78 461 271 542 512 49 144 70 376 43 469 -25 88 -91 163 -178
205 l-55 26 -655 6 c-360 3 -664 9 -675 12 -11 4 -59 16 -106 27 -124 29 -251
72 -384 130 -27 13 -70 31 -95 42 -25 11 -79 36 -120 55 -132 62 -346 160
-465 213 -127 56 -332 126 -465 159 -223 55 -478 78 -730 64z"/>
<path d="M380 3093 c-64 -22 -125 -67 -158 -116 -61 -90 -57 6 -57 -1422 0
-1239 1 -1312 18 -1350 31 -68 68 -113 121 -148 88 -57 90 -57 509 -57 l387 0
-2 1553 -3 1552 -385 2 c-329 2 -392 0 -430 -14z"/>
</g>
</svg>
