<?xml version="1.0" standalone="no"?>
<!DOCTYPE svg PUBLIC "-//W3C//DTD SVG 20010904//EN"
 "http://www.w3.org/TR/2001/REC-SVG-20010904/DTD/svg10.dtd">
<svg version="1.0" xmlns="http://www.w3.org/2000/svg"
 width="1080.000000pt" height="1080.000000pt" viewBox="0 0 1080.000000 1080.000000"
 preserveAspectRatio="xMidYMid meet">

<g transform="translate(0.000000,1080.000000) scale(0.100000,-0.100000)"
fill="#000000" stroke="none">
<path d="M7300 7500 c0 -1815 4 -3300 8 -3300 5 0 18 10 29 22 11 13 132 133
269 268 137 134 342 337 457 449 l207 205 0 2828 0 2828 -485 0 -485 0 0
-3300z"/>
<path d="M4137 9523 c-4 -3 -7 -952 -7 -2108 0 -1666 3 -2104 13 -2117 14 -18
921 -698 931 -698 3 0 6 1109 6 2465 l0 2465 -468 0 c-258 0 -472 -3 -475 -7z"/>
<path d="M2550 5749 c0 -1483 3 -1860 13 -1857 6 2 220 213 475 468 l462 465
0 1393 0 1392 -475 0 -475 0 0 -1861z"/>
<path d="M8907 6323 c-4 -3 -7 -145 -7 -315 l0 -308 399 0 c220 0 402 -4 405
-9 3 -4 -157 -170 -357 -367 -199 -197 -887 -881 -1530 -1519 -642 -638 -1172
-1162 -1178 -1163 -5 -2 -575 420 -1265 938 -691 517 -1262 940 -1270 938 -8
-2 -934 -923 -2058 -2047 l-2044 -2044 141 -136 c78 -75 179 -171 224 -214
l81 -79 1109 1103 c609 607 1442 1436 1851 1844 408 407 747 741 752 743 5 2
578 -422 1271 -943 l1262 -946 101 98 c55 54 831 825 1724 1713 893 888 1630
1616 1638 1618 12 3 14 -55 14 -397 l0 -401 315 0 315 0 0 950 0 950 -943 0
c-519 0 -947 -3 -950 -7z"/>
<path d="M957 5693 c-8 -8 -9 -3393 -1 -3393 5 0 242 232 762 745 l202 199 -2
1226 -3 1225 -476 3 c-261 1 -479 -1 -482 -5z"/>
<path d="M5727 5693 c-4 -3 -7 -361 -7 -794 l0 -788 420 -315 c231 -174 426
-316 434 -316 7 0 32 20 55 45 l41 45 0 1053 c0 806 -3 1056 -12 1065 -9 9
-127 12 -468 12 -251 0 -460 -3 -463 -7z"/>
</g>
</svg>
