<?xml version="1.0" standalone="no"?>
<!DOCTYPE svg PUBLIC "-//W3C//DTD SVG 20010904//EN"
 "http://www.w3.org/TR/2001/REC-SVG-20010904/DTD/svg10.dtd">
<svg version="1.0" xmlns="http://www.w3.org/2000/svg"
 width="1080.000000pt" height="1080.000000pt" viewBox="0 0 1080.000000 1080.000000"
 preserveAspectRatio="xMidYMid meet">

<g transform="translate(0.000000,1080.000000) scale(0.100000,-0.100000)"
fill="#000000" stroke="none">
<path d="M2895 10465 c-620 -58 -1212 -236 -1582 -477 -439 -286 -677 -634
-700 -1027 -6 -102 17 -394 43 -565 19 -119 14 -225 -15 -356 -35 -155 -27
-472 19 -755 16 -97 12 -212 -12 -325 -30 -144 -30 -419 1 -728 23 -238 22
-301 -10 -437 -26 -109 -25 -324 2 -603 24 -252 21 -409 -10 -576 -27 -140
-27 -270 -1 -535 38 -392 65 -512 155 -698 128 -263 385 -522 703 -710 243
-143 675 -300 1012 -367 288 -57 480 -76 791 -76 324 0 548 21 846 81 56 11
124 19 150 17 45 -3 49 -5 60 -38 7 -19 12 -87 13 -150 2 -405 131 -749 379
-1012 166 -177 427 -359 683 -477 245 -113 618 -227 899 -276 201 -35 323 -46
574 -52 744 -17 1396 131 1905 432 286 170 517 385 641 600 103 177 143 339
184 735 9 85 23 202 30 259 22 155 19 241 -11 352 -41 150 -43 301 -8 579 35
288 37 451 6 567 -25 93 -27 128 -9 159 7 12 52 57 101 100 155 137 271 299
329 462 43 118 58 200 82 437 3 33 15 124 26 202 25 184 24 261 -3 381 -32
134 -31 388 0 579 28 166 28 293 2 393 -46 176 -46 230 1 600 20 156 21 185
11 280 -33 293 -163 518 -427 739 -128 106 -248 182 -420 266 -590 288 -1308
390 -2050 290 -516 -70 -950 -232 -1273 -477 -118 -90 -136 -96 -128 -40 3 20
8 71 11 112 4 41 16 134 28 205 17 102 22 169 21 310 -1 161 -3 190 -27 278
-73 274 -244 511 -527 730 -139 108 -263 182 -440 263 -413 188 -839 302
-1298 349 -184 18 -556 18 -757 0z m730 -185 c98 -11 218 -27 265 -35 129 -22
481 -114 515 -134 63 -36 56 -108 -15 -143 -50 -25 -184 -24 -275 2 -249 72
-436 102 -725 119 -155 9 -212 22 -252 59 -26 22 -23 74 6 101 58 55 190 63
481 31z m-1517 -264 c34 -18 62 -52 62 -77 0 -33 -43 -70 -133 -115 -138 -69
-263 -165 -447 -344 -123 -119 -152 -134 -246 -127 -128 10 -204 60 -189 127
9 39 152 191 260 275 156 121 335 226 455 267 66 22 190 19 238 -6z m1402
-131 c302 -35 534 -102 780 -225 233 -117 410 -300 472 -492 32 -96 30 -240
-4 -335 -98 -274 -434 -521 -841 -618 -261 -62 -650 -91 -877 -66 -516 59
-960 271 -1149 550 -86 127 -116 228 -109 367 6 103 29 175 83 260 74 116 232
256 380 339 309 173 856 268 1265 220z m1823 -383 c62 -28 109 -83 160 -186
57 -114 73 -164 94 -285 19 -114 8 -229 -28 -288 -45 -73 -164 -101 -279 -67
-120 36 -135 63 -126 229 10 163 -8 242 -91 413 -14 29 -28 71 -30 95 -4 36
-1 46 22 69 15 15 46 32 68 37 58 14 159 5 210 -17z m-3897 -826 c35 -16 67
-43 105 -87 162 -191 307 -313 469 -394 96 -48 134 -77 149 -113 11 -26 10
-35 -8 -70 -23 -46 -71 -89 -121 -110 -170 -71 -595 178 -850 498 -82 104 -90
118 -90 167 0 48 20 78 72 104 86 44 184 46 274 5z m6824 -91 c154 -20 293
-48 425 -86 139 -41 172 -57 185 -89 16 -38 -3 -66 -58 -87 -67 -25 -142 -20
-282 19 -163 46 -268 64 -532 88 -233 21 -271 31 -282 76 -10 37 1 63 37 85
30 19 44 20 207 15 96 -2 231 -12 300 -21z m-1440 -210 c35 -18 50 -43 50 -83
0 -36 -13 -48 -124 -106 -135 -70 -214 -127 -291 -207 -141 -146 -152 -156
-201 -173 -123 -42 -254 1 -254 83 0 32 11 46 113 146 247 244 582 405 707
340z m1349 -141 c318 -54 534 -138 728 -282 257 -192 337 -447 214 -690 -78
-154 -243 -287 -482 -390 -529 -226 -1312 -172 -1752 121 -102 68 -230 201
-274 283 -131 246 -51 493 229 704 181 137 472 238 776 270 117 12 454 3 561
-16z m-3460 -140 c129 -70 121 -159 -22 -238 -68 -38 -254 -105 -381 -137
-250 -64 -702 -135 -797 -125 -182 18 -280 127 -199 219 48 55 111 76 262 88
268 20 486 66 733 155 191 68 213 74 286 70 49 -2 79 -10 118 -32z m4966 -194
c103 -64 195 -293 198 -495 2 -114 -12 -152 -73 -192 -44 -31 -173 -32 -237
-4 -62 28 -73 58 -73 191 0 136 -19 228 -71 336 -45 94 -48 126 -15 159 21 20
43 28 116 38 36 6 123 -13 155 -33z m-8884 -93 c80 -157 258 -370 418 -499
350 -283 939 -515 1516 -597 287 -41 520 -50 811 -31 717 48 1315 242 1764
573 178 132 360 338 459 519 20 37 39 68 43 68 11 0 -2 -123 -22 -221 -62
-292 -249 -551 -567 -787 -296 -218 -665 -370 -1118 -461 -209 -42 -351 -59
-597 -72 -669 -34 -1298 90 -1841 363 -521 261 -869 684 -912 1110 -11 100 7
113 46 35z m5456 -612 c37 -19 67 -47 118 -111 102 -128 263 -258 420 -337 68
-34 90 -60 90 -107 0 -30 -8 -47 -29 -69 -37 -39 -83 -54 -166 -55 -58 0 -78
5 -156 43 -187 89 -380 242 -505 399 -68 84 -88 136 -70 180 32 77 195 108
298 57z m-5437 -532 c78 -137 137 -212 269 -343 131 -130 245 -219 394 -308
366 -216 895 -375 1457 -437 180 -20 585 -20 778 0 633 66 1290 308 1653 611
142 118 309 313 391 456 18 32 36 58 41 58 12 0 8 -103 -7 -182 -52 -269 -258
-566 -541 -780 -340 -256 -901 -462 -1435 -527 -427 -52 -895 -32 -1330 55
-469 93 -946 308 -1250 562 -219 184 -397 449 -455 678 -27 103 -44 254 -29
254 5 -1 34 -44 64 -97z m8280 30 c93 -38 117 -110 57 -167 -60 -56 -358 -160
-587 -205 -287 -56 -505 -75 -593 -50 -21 5 -52 23 -69 38 -27 24 -31 35 -31
75 0 35 5 52 23 71 35 38 53 41 418 90 150 20 300 59 459 118 66 25 133 48
149 50 44 7 134 -3 174 -20z m965 -320 c-23 -217 -134 -430 -324 -621 -327
-329 -817 -534 -1466 -613 -210 -25 -294 -22 -469 16 -182 40 -390 65 -626 75
-145 7 -243 16 -300 29 -211 48 -526 202 -738 361 -172 129 -241 219 -250 326
-4 50 13 150 27 158 4 3 51 -31 106 -75 171 -137 294 -212 505 -309 374 -171
772 -255 1261 -267 281 -7 419 3 674 47 500 87 842 218 1130 433 160 119 317
285 420 444 22 34 44 62 49 63 4 0 5 -30 1 -67z m-9262 -799 c127 -216 370
-469 597 -621 346 -231 867 -401 1470 -480 172 -22 727 -25 890 -5 286 36 566
100 822 188 406 139 668 294 914 539 128 128 216 244 290 384 37 70 41 50 19
-99 -29 -200 -82 -326 -175 -420 -53 -52 -131 -94 -325 -174 -270 -112 -538
-315 -719 -543 -31 -40 -69 -79 -85 -87 -87 -46 -446 -129 -691 -162 -167 -22
-656 -30 -833 -14 -473 43 -920 162 -1270 336 -494 247 -818 589 -922 974 -27
100 -44 250 -29 250 5 0 26 -30 47 -66z m9254 -193 c-17 -270 -227 -574 -544
-788 -210 -142 -210 -142 -324 -40 -45 39 -94 82 -108 94 l-26 22 56 24 c462
206 715 404 894 700 25 42 49 77 52 77 3 0 3 -40 0 -89z m-2522 -369 c412 -66
645 -138 645 -199 0 -50 -68 -105 -145 -117 -44 -8 -73 -2 -206 37 -194 57
-446 98 -731 117 -202 13 -248 34 -248 109 0 36 28 68 67 77 16 3 33 8 38 10
6 2 96 2 200 0 149 -3 231 -11 380 -34z m-1709 -236 c52 -24 64 -39 64 -81 0
-36 -27 -59 -140 -121 -169 -92 -247 -150 -386 -290 -72 -73 -146 -140 -165
-150 -20 -10 -64 -19 -109 -22 -68 -3 -80 -1 -130 25 -70 37 -89 67 -70 114
21 51 231 255 335 325 113 77 238 148 335 190 97 43 188 46 266 10z m1529
-151 c219 -34 420 -96 631 -195 140 -65 214 -118 319 -224 149 -152 206 -274
206 -442 0 -163 -64 -297 -210 -443 -96 -97 -186 -160 -317 -225 -344 -169
-916 -244 -1334 -175 -94 16 -283 63 -375 95 -117 39 -371 164 -442 218 -33
25 -97 85 -142 132 -263 278 -250 602 36 875 96 91 189 154 325 219 207 98
415 148 773 184 91 9 425 -3 530 -19z m-6427 -345 c75 -99 247 -271 347 -346
276 -207 641 -370 1095 -487 289 -75 679 -113 1055 -104 243 6 438 28 722 82
159 30 179 32 190 18 20 -26 33 -110 33 -217 0 -121 -2 -124 -102 -155 -277
-84 -848 -137 -1212 -112 -405 29 -738 100 -1091 233 -688 259 -1140 714
-1206 1216 -18 135 -9 141 57 36 30 -49 81 -123 112 -164z m8125 -23 c144 -60
267 -330 267 -586 0 -103 -12 -150 -47 -192 -37 -43 -80 -59 -161 -59 -82 0
-145 20 -195 61 -43 35 -57 78 -44 134 5 22 7 90 5 150 -4 107 -6 113 -61 242
-70 164 -73 177 -53 208 45 69 179 89 289 42z m-3885 -823 c41 -20 69 -46 131
-123 128 -158 263 -269 461 -380 102 -58 130 -86 130 -130 0 -76 -66 -130
-185 -152 -94 -17 -184 15 -373 135 -195 124 -321 237 -438 391 -62 82 -88
137 -78 168 14 46 84 99 159 118 48 13 136 0 193 -27z m3257 -578 c61 -28 105
-77 105 -116 0 -38 -41 -85 -99 -115 -264 -133 -755 -251 -1097 -262 -168 -6
-172 -5 -227 20 -126 57 -129 175 -7 237 56 29 114 39 274 50 241 16 436 62
756 179 112 40 219 43 295 7z m-3895 -323 c106 -175 211 -299 354 -419 426
-357 1014 -584 1726 -666 168 -19 633 -16 845 6 295 30 525 77 772 157 600
194 1025 502 1250 905 26 46 50 84 54 84 16 0 -17 -215 -48 -315 -57 -180
-155 -336 -313 -495 -290 -293 -623 -473 -1120 -603 -619 -163 -1206 -187
-1775 -71 -457 92 -951 299 -1249 524 -219 164 -428 436 -500 651 -34 100 -70
329 -53 329 2 0 28 -39 57 -87z"/>
</g>
</svg>
