<?xml version="1.0" standalone="no"?>
<!DOCTYPE svg PUBLIC "-//W3C//DTD SVG 20010904//EN"
 "http://www.w3.org/TR/2001/REC-SVG-20010904/DTD/svg10.dtd">
<svg version="1.0" xmlns="http://www.w3.org/2000/svg"
 width="107.000000pt" height="64.000000pt" viewBox="0 0 107.000000 64.000000"
 preserveAspectRatio="xMidYMid meet">

<g transform="translate(0.000000,64.000000) scale(0.100000,-0.100000)"
fill="#000000" stroke="none">
<path d="M64 566 c-37 -32 -39 -36 -36 -80 l4 -47 149 3 c82 2 149 0 149 -3 0
-3 -29 -29 -65 -59 -36 -30 -65 -56 -65 -59 0 -3 19 -19 41 -36 l41 -30 -99
-3 c-95 -3 -99 -4 -130 -34 -31 -30 -33 -36 -33 -100 l0 -68 248 0 c180 0 251
3 260 12 8 8 12 46 12 104 l0 91 -46 43 -47 43 47 41 46 41 3 80 c2 44 4 -40
5 -187 l2 -268 206 0 205 0 39 33 c37 30 40 36 40 84 0 87 7 83 -161 83 l-150
0 3 98 3 97 153 3 152 3 0 74 0 75 -468 0 -469 0 -39 -34z"/>
</g>
</svg>
